{"asset":{"generator":"PlayCanvas Converter v1.2.0","version":"2.0"},"scene":0,"nodes":[{"name":"RootNode","translation":[0,0,0],"rotation":[0,0,0,1],"scale":[0.01,0.01,0.01],"children":[1]},{"name":"52910M7500","translation":[0,-8.17585e-16,0],"rotation":[-1.41638e-16,-0,0,1],"scale":[1,1,1],"children":[2,3,4,5,6,7,8,9,10,11,12,13,14,15,16,17,18,19,20,21,22,23,24,25]},{"name":"52910M7500_1","translation":[-4.75764,30.6102,78.5143],"rotation":[1.63218e-08,-0.258819,-3.34e-09,0.965926],"scale":[1,1,1]},{"name":"52910M7500_2","translation":[-4.75764,30.6102,78.5143],"rotation":[1.63218e-08,-0.258819,-3.34e-09,0.965926],"scale":[1,1,1]},{"name":"52910M7500_3","translation":[-4.75764,30.6102,78.5143],"rotation":[1.63218e-08,-0.258819,-3.34e-09,0.965926],"scale":[1,1,1]},{"name":"52910M7500_4","translation":[-4.75764,30.6102,78.5143],"rotation":[1.63218e-08,-0.258819,-3.34e-09,0.965926],"scale":[1,1,1]},{"name":"52910M7500_5","translation":[-4.75764,30.6102,78.5143],"rotation":[1.63218e-08,-0.258819,-3.34e-09,0.965926],"scale":[1,1,1]},{"name":"52910M7500_6","translation":[-4.75764,30.6102,78.5143],"rotation":[1.63218e-08,-0.258819,-3.34e-09,0.965926],"scale":[1,1,1]},{"name":"52910M7500_7","translation":[-4.75764,30.6102,78.5143],"rotation":[1.63218e-08,-0.258819,-3.34e-09,0.965926],"scale":[1,1,1]},{"name":"52910M7500_8","translation":[-4.14953,30.6102,77.3762],"rotation":[9.97082e-09,-0.241922,1.78433e-08,0.970296],"scale":[1,1,1]},{"name":"52910M7500_9","translation":[-5.83631,30.6099,-76.3119],"rotation":[1.43934e-08,-0.258819,3.8567e-09,0.965926],"scale":[1,1,1]},{"name":"52910M7500_10","translation":[-5.83631,30.6099,-76.3119],"rotation":[1.43934e-08,-0.258819,3.8567e-09,0.965926],"scale":[1,1,1]},{"name":"52910M7500_11","translation":[-5.83631,30.6099,-76.3119],"rotation":[1.43934e-08,-0.258819,3.8567e-09,0.965926],"scale":[1,1,1]},{"name":"52910M7500_12","translation":[-5.83631,30.6099,-76.3119],"rotation":[1.43934e-08,-0.258819,3.8567e-09,0.965926],"scale":[1,1,1]},{"name":"52910M7500_13","translation":[-5.83631,30.6099,-76.3119],"rotation":[1.43934e-08,-0.258819,3.8567e-09,0.965926],"scale":[1,1,1]},{"name":"52910M7500_14","translation":[-5.83631,30.6099,-76.3119],"rotation":[1.43934e-08,-0.258819,3.8567e-09,0.965926],"scale":[1,1,1]},{"name":"52910M7500_15","translation":[-5.83631,30.6099,-76.3119],"rotation":[1.43934e-08,-0.258819,3.8567e-09,0.965926],"scale":[1,1,1]},{"name":"52910M7500_16","translation":[-6.48058,30.6099,-75.196],"rotation":[-3.09086e-08,0.965926,-3.09086e-08,0.258819],"scale":[1,1,1]},{"name":"52910M7500_17","translation":[264.998,30.3776,-0.0383352],"rotation":[4.93038e-32,0,0,1],"scale":[1,1,1]},{"name":"52910M7500_18","translation":[264.998,30.3776,-0.0383352],"rotation":[4.93038e-32,0,0,1],"scale":[1,1,1]},{"name":"52910M7500_19","translation":[264.998,30.3776,-0.0383352],"rotation":[4.93038e-32,0,0,1],"scale":[1,1,1]},{"name":"52910M7500_20","translation":[264.998,30.3776,-0.0383352],"rotation":[4.93038e-32,0,0,1],"scale":[1,1,1]},{"name":"52910M7500_21","translation":[264.998,30.3776,-0.0383352],"rotation":[4.93038e-32,0,0,1],"scale":[1,1,1]},{"name":"52910M7500_22","translation":[264.998,30.3776,-0.0383352],"rotation":[4.93038e-32,0,0,1],"scale":[1,1,1]},{"name":"52910M7500_23","translation":[264.998,30.3776,-0.0383352],"rotation":[4.93038e-32,0,0,1],"scale":[1,1,1]},{"name":"52910M7500_24","translation":[264.998,30.3702,-0.0383355],"rotation":[6.08851e-19,0,0,1],"scale":[1,1,1]}],"meshes":[],"animations":[{"name":"CINEMA_4D_Main","channels":[{"sampler":0,"target":{"node":2,"path":"translation"}},{"sampler":1,"target":{"node":2,"path":"rotation"}},{"sampler":2,"target":{"node":3,"path":"translation"}},{"sampler":3,"target":{"node":3,"path":"rotation"}},{"sampler":4,"target":{"node":4,"path":"translation"}},{"sampler":5,"target":{"node":4,"path":"rotation"}},{"sampler":6,"target":{"node":5,"path":"translation"}},{"sampler":7,"target":{"node":5,"path":"rotation"}},{"sampler":8,"target":{"node":6,"path":"translation"}},{"sampler":9,"target":{"node":6,"path":"rotation"}},{"sampler":10,"target":{"node":7,"path":"translation"}},{"sampler":11,"target":{"node":7,"path":"rotation"}},{"sampler":12,"target":{"node":8,"path":"translation"}},{"sampler":13,"target":{"node":8,"path":"rotation"}},{"sampler":14,"target":{"node":9,"path":"translation"}},{"sampler":15,"target":{"node":9,"path":"rotation"}},{"sampler":16,"target":{"node":10,"path":"translation"}},{"sampler":17,"target":{"node":10,"path":"rotation"}},{"sampler":18,"target":{"node":11,"path":"translation"}},{"sampler":19,"target":{"node":11,"path":"rotation"}},{"sampler":20,"target":{"node":12,"path":"translation"}},{"sampler":21,"target":{"node":12,"path":"rotation"}},{"sampler":22,"target":{"node":13,"path":"translation"}},{"sampler":23,"target":{"node":13,"path":"rotation"}},{"sampler":24,"target":{"node":14,"path":"translation"}},{"sampler":25,"target":{"node":14,"path":"rotation"}},{"sampler":26,"target":{"node":15,"path":"translation"}},{"sampler":27,"target":{"node":15,"path":"rotation"}},{"sampler":28,"target":{"node":16,"path":"translation"}},{"sampler":29,"target":{"node":16,"path":"rotation"}},{"sampler":30,"target":{"node":17,"path":"translation"}},{"sampler":31,"target":{"node":17,"path":"rotation"}}],"samplers":[{"input":1,"interpolation":"LINEAR","output":0},{"input":1,"interpolation":"LINEAR","output":2},{"input":1,"interpolation":"LINEAR","output":0},{"input":1,"interpolation":"LINEAR","output":2},{"input":1,"interpolation":"LINEAR","output":0},{"input":1,"interpolation":"LINEAR","output":2},{"input":1,"interpolation":"LINEAR","output":0},{"input":1,"interpolation":"LINEAR","output":2},{"input":1,"interpolation":"LINEAR","output":0},{"input":1,"interpolation":"LINEAR","output":2},{"input":1,"interpolation":"LINEAR","output":0},{"input":1,"interpolation":"LINEAR","output":2},{"input":1,"interpolation":"LINEAR","output":0},{"input":1,"interpolation":"LINEAR","output":2},{"input":1,"interpolation":"LINEAR","output":3},{"input":1,"interpolation":"LINEAR","output":4},{"input":1,"interpolation":"LINEAR","output":5},{"input":1,"interpolation":"LINEAR","output":6},{"input":1,"interpolation":"LINEAR","output":5},{"input":1,"interpolation":"LINEAR","output":6},{"input":1,"interpolation":"LINEAR","output":5},{"input":1,"interpolation":"LINEAR","output":6},{"input":1,"interpolation":"LINEAR","output":5},{"input":1,"interpolation":"LINEAR","output":6},{"input":1,"interpolation":"LINEAR","output":5},{"input":1,"interpolation":"LINEAR","output":6},{"input":1,"interpolation":"LINEAR","output":5},{"input":1,"interpolation":"LINEAR","output":6},{"input":1,"interpolation":"LINEAR","output":5},{"input":1,"interpolation":"LINEAR","output":6},{"input":1,"interpolation":"LINEAR","output":7},{"input":1,"interpolation":"LINEAR","output":8}]}],"buffers":[{"byteLength":2436}],"bufferViews":[{"buffer":0,"byteLength":252,"byteOffset":0},{"buffer":0,"byteLength":84,"byteOffset":252},{"buffer":0,"byteLength":336,"byteOffset":336},{"buffer":0,"byteLength":252,"byteOffset":672},{"buffer":0,"byteLength":336,"byteOffset":924},{"buffer":0,"byteLength":252,"byteOffset":1260},{"buffer":0,"byteLength":336,"byteOffset":1512},{"buffer":0,"byteLength":252,"byteOffset":1848},{"buffer":0,"byteLength":336,"byteOffset":2100}],"accessors":[{"type":"VEC3","componentType":5126,"count":21,"bufferView":0,"byteOffset":0},{"type":"SCALAR","componentType":5126,"min":[0],"max":[2],"count":21,"bufferView":1,"byteOffset":0},{"type":"VEC4","componentType":5126,"count":21,"bufferView":2,"byteOffset":0},{"type":"VEC3","componentType":5126,"count":21,"bufferView":3,"byteOffset":0},{"type":"VEC4","componentType":5126,"count":21,"bufferView":4,"byteOffset":0},{"type":"VEC3","componentType":5126,"count":21,"bufferView":5,"byteOffset":0},{"type":"VEC4","componentType":5126,"count":21,"bufferView":6,"byteOffset":0},{"type":"VEC3","componentType":5126,"count":21,"bufferView":7,"byteOffset":0},{"type":"VEC4","componentType":5126,"count":21,"bufferView":8,"byteOffset":0}],"scenes":[{"nodes":[0]}]}